<svg xmlns="http://www.w3.org/2000/svg" viewBox="0 0 64 64" width="64" height="64">
  <defs>
    <linearGradient id="g" x1="0" y1="0" x2="1" y2="1">
      <stop offset="0" stop-color="#8b5cf6"/>
      <stop offset="1" stop-color="#6d28d9"/>
    </linearGradient>
  </defs>
  <rect width="64" height="64" rx="16" fill="url(#g)"/>
  <!-- lucide book-open-check, scaled and centered, to match Logo.tsx -->
  <g transform="translate(12,12) scale(1.667)" fill="none" stroke="#ffffff"
     stroke-width="2" stroke-linecap="round" stroke-linejoin="round">
    <path d="M12 21V7"/>
    <path d="m16 12 2 2 4-4"/>
    <path d="M22 6V4a1 1 0 0 0-1-1h-5a4 4 0 0 0-4 4 4 4 0 0 0-4-4H3a1 1 0 0 0-1 1v13a1 1 0 0 0 1 1h6a3 3 0 0 1 3 3 3 3 0 0 1 3-3h6a1 1 0 0 0 1-1v-1.3"/>
  </g>
</svg>
